/* XPM */
static char *d4c74a91c6d24f4efa7fa4aaa075687080R7lbOKcqmSn5sC[] = {
/* columns rows colors chars-per-pixel */
"64 64 172 2 ",
"   c None",
".  c #000000",
"X  c #0D0602",
"o  c #0E0D06",
"O  c #06020C",
"+  c #09050D",
"@  c #0D0C0E",
"#  c #150900",
"$  c #110E0A",
"%  c #14110C",
"&  c #0D0D14",
"*  c #120D14",
"=  c #1D1917",
"-  c #16171A",
";  c #15181D",
":  c #1D1F1E",
">  c #121215",
",  c #24201A",
"<  c #232412",
"1  c #0E1E2D",
"2  c #161920",
"3  c #1B1C24",
"4  c #171E2F",
"5  c #001034",
"6  c #1E232B",
"7  c #1D2538",
"8  c #1E2C3B",
"9  c #222222",
"0  c #22242C",
"q  c #24292E",
"w  c #222331",
"e  c #262C34",
"r  c #282E35",
"t  c #242F3A",
"y  c #2A2F3B",
"u  c #2A3036",
"i  c #25313E",
"p  c #2B333C",
"a  c #303636",
"s  c #32383E",
"d  c #243341",
"f  c #2E3644",
"g  c #2E3945",
"h  c #323642",
"j  c #333B45",
"k  c #33374A",
"l  c #343D4A",
"z  c #393E4C",
"x  c #364047",
"c  c #34414D",
"v  c #3A414D",
"b  c #344250",
"n  c #3C4553",
"m  c #3E4956",
"M  c #3A4558",
"N  c #3D4958",
"B  c #3C4C67",
"V  c #424754",
"C  c #404A57",
"Z  c #424C5B",
"A  c #484F5F",
"S  c #45525E",
"D  c #49535F",
"F  c #525557",
"G  c #444F61",
"H  c #484F60",
"J  c #455264",
"K  c #4B5465",
"L  c #4A5865",
"P  c #47566A",
"I  c #4D5769",
"U  c #475869",
"Y  c #4D5B6C",
"T  c #555B61",
"R  c #505B6E",
"E  c #4C5A73",
"W  c #515E73",
"Q  c #505F7A",
"!  c #50606C",
"~  c #536176",
"^  c #586777",
"/  c #52637D",
"(  c #596A7B",
")  c #646D76",
"_  c #566683",
"`  c #596783",
"'  c #576985",
"]  c #5A6B85",
"[  c #576B89",
"{  c #5C6E8B",
"}  c #5E718D",
"|  c #5E7391",
" . c #627585",
".. c #6C7980",
"X. c #60728D",
"o. c #67788D",
"O. c #6A7B8D",
"+. c #707B82",
"@. c #737F88",
"#. c #627595",
"$. c #657996",
"%. c #637798",
"&. c #657998",
"*. c #697C9B",
"=. c #79868B",
"-. c #6D8296",
";. c #6F849B",
":. c #7F8B91",
">. c #71869C",
",. c #738A9F",
"<. c #798F9F",
"1. c #6E83A2",
"2. c #7085A1",
"3. c #758CA4",
"4. c #788EA4",
"5. c #758DAA",
"6. c #7A8FA9",
"7. c #7791A6",
"8. c #7990A6",
"9. c #7791AB",
"0. c #7C94AC",
"q. c #7D98AF",
"w. c #7F97B0",
"e. c #7F9AB2",
"r. c #828C95",
"t. c #87969C",
"y. c #89969D",
"u. c #8B989D",
"i. c #8E9CA4",
"p. c #8095AD",
"a. c #8199AF",
"s. c #919FA5",
"d. c #8297B2",
"f. c #849CB4",
"g. c #889DB2",
"h. c #859DBA",
"j. c #889FBA",
"k. c #8CA0AC",
"l. c #94A4AB",
"z. c #96A8AD",
"x. c #9AA8AE",
"c. c #85A0B7",
"v. c #8EA1B5",
"b. c #85A1BB",
"n. c #8AA2BB",
"m. c #91A5B6",
"M. c #9AACB2",
"N. c #A4B7BD",
"B. c #8CA6C1",
"V. c #8EAAC4",
"C. c #8EA9C3",
"Z. c #8FACC8",
"A. c #90ABC5",
"S. c #91ACC8",
"D. c #9AB0C3",
"F. c #9CB5C9",
"G. c #9EB8CB",
"H. c #ACBBC5",
"J. c #A1B6CA",
"K. c #A3BCCE",
"L. c #A4BED1",
"P. c #B0C0C6",
"I. c #B3C2CC",
"U. c #A7C1D4",
"Y. c #A9C2D4",
"T. c #B2C6D3",
"R. c #B7CDD6",
"E. c #BCD3DC",
"W. c #BFD7E1",
"Q. c #C2D4DF",
"!. c #C2D7E0",
"~. c #C5DBE5",
/* pixels */
"                                                                                                                                ",
"                                                                                                                                ",
"                                                                                                                                ",
"                                                                                                                                ",
"                                                                                                                                ",
"                                                                                                                                ",
"                                                                                                                                ",
"                                                                                                                                ",
"                                                                                                                                ",
"                                                                                                                                ",
"                                                                                                                                ",
"                                                        . X 3 6 3 6 q < .                                                       ",
"                                                      - Y } 8.a.0.g.H.I.l..                                                     ",
"                                            @ & @ . . E #.#.L S S D ) p.J.l.. o : $                                             ",
"                                        . z H Z A I s { #.g h n j M B 5 3.g.N } _ 2.-.#                                         ",
"                                    $ l S K I I K 3.a.q.} 6 K { #.&.{ 6 } p.a.9.3.V.f.D.i.,                                     ",
"                                  h A K K K J A K n c m l G ] *.h.n.h.X.N n Y ;.q.c.B.B.J.I.r.                                  ",
"                                h K K K K K y e A V C E / { $.d.g.n.n.w.0.w.f.7.M ( n.n.b.K.Q.=.                                ",
"                                h K K K H r 0 Z K R ] l k { f.#.Z j.g.A W n.V.n.q.E ( n.b.K.Q.:.                                ",
"                                & j Z K v w Z D K / y y ` *.h.} Z g.n.d.' J q.n.n.q.} w.J.H.y.9                                 ",
"                                l v ; l C H I R } J h ` } d.n._ k f.n.n.g.] o.V.C.A.d.m.y.6 x.i.                                ",
"                                l I K l 2 z n E / ~ | %.1.B.V.1.] n.A.B.A.n.3.3.3.7.O.x O.J.~.i.                                ",
"                                p K I K K h 3 p f f E / ,.6.4.3.3.3.3.3.4.-.S S S v  .b.K.Q.T...                                ",
"                                  p m n K I K ] | { M i f p p Z S Z Z S n ^ b.n.C.B.A.c.k.H.@.                                  ",
"                                    2 0 h n v Y | %.%.$.$.%.*.B.S.A.S.S.S.V.Z.n.,.,.4.( O .                                     ",
"                                    v I l 0 e = Z E E E E E E ;.>.>.>.>.>.;.3. .. 6 7  .v.O.                                    ",
"                                    l I K K I ~ Z l b c c b c t 8 i d i 8 d 1 U 0.5.d.Y.!.l.                                    ",
"                                    v I K K n J } #.#.%.#.| #.5.9.3.3.3.9.5.3.3.>.5.G.R.!.z..                                   ",
"                                    p Z K I e . Q #.E E { | } ;.3.n.B.n.>.3.S.7.. J F.E.H.+.                                    ",
"                                      v I K u . / #.6 . _ #.{ . % f.C.q.. l V.4.. E F.W.s.                                      ",
"                                      v I K r . / #.p . _ #.{ 3 h g.C.w.. Z V.4.. Y F.W.l.                                      ",
"                                      v I K r . / #.p . _ #.{ & p g.C.w.. Z V.4.. Y F.W.l.                                      ",
"                                      v I K r . / #.p . _ #.{ & p g.C.w.. Z V.4.. Y F.W.l.                                      ",
"                                      v I K r . / #.p . _ #.{ & p g.C.w.. Z V.4.. Y F.W.l.                                      ",
"                                      v K K r . / #.p . _ #.{ & p g.C.w.. Z V.4.. Y F.E.l.                                      ",
"                                      v I K r . / #.p . _ #.{ & p g.C.w.. Z V.4.. Y F.~.s.                                      ",
"                                      0 C I r . / #.p . _ #.{ & p g.A.w.. Z V.4.. P L.N.F                                       ",
"                                      . v I r . / #.p . _ #.{ & p g.C.q.. m Z.9.. J U.l.                                        ",
"                                      . n I r . f ] g . _ #.{ & p g.C.w.. L w.J . G U.l.                                        ",
"                                      . n I Z 6 . / k . ] #.{ & p g.C.d.. Y 4.. C 9.L.z.                                        ",
"                                      . n I K r . _ k . f { } + u n.g.S . L 9.. ! B.K.z.                                        ",
"                                        v I K r . / { 6 . [ | . r n.d.. p g.8.. Y b.K.z.                                        ",
"                                        v I K r . / &.i . [ } O r n.f.. n A.8.. Y b.K.M.                                        ",
"                                        v I K r . / #.t . [ | O r n.d.. v C.8.. Y b.L.M..                                       ",
"                                        v I K r . / #.t . [ | O r n.d.. v C.8.. Y b.K.z.                                        ",
"                                        l K K q . / #.t . [ | . r n.f.. n C.8.. L b.K.l.                                        ",
"                                        ; n K j * / #.p . [ | 2 p n.d.. l C.4.X  .h.J.M..                                       ",
"                                        j h l W { #.| 6 . ' } . $ n.d.q J n.C.d.9.$.t.y.                                        ",
"                                          j h e W ] | M y { #.m L n.C.b.n.b.d.<.T r.y.                                          ",
"                                          . z Z p i / / / _ ' 4.0.0.q.p.d.,.4 ) P.u.                                            ",
"                                              > l / l p l g g v v j j f p M [ E a                                               ",
"                                                  @ z _ ' ] ' _ _ ' ' _ [ E -                                                   ",
"                                                      O O O O O + O O O O                                                       ",
"                                                                                                                                ",
"                                                                                                                                ",
"                                                                                                                                ",
"                                                                                                                                ",
"                                                                                                                                ",
"                                                                                                                                ",
"                                                                                                                                ",
"                                                                                                                                ",
"                                                                                                                                ",
"                                                                                                                                ",
"                                                                                                                                "
};
