/* XPM */
static char *_59e34373b764a2399a494612500f26055CEzAeflpsfNcm4[] = {
/* columns rows colors chars-per-pixel */
"64 64 120 2 ",
"   c None",
".  c #003765",
"X  c #00496D",
"o  c #00516F",
"O  c #005472",
"+  c #005A76",
"@  c #005E7B",
"#  c #00637E",
"$  c #20627C",
"%  c #026681",
"&  c #056A84",
"*  c #0D6C86",
"=  c #036E8C",
"-  c #0D6E89",
";  c #116D84",
":  c #116E89",
">  c #196C88",
",  c #01718F",
"<  c #0D718C",
"1  c #1F7187",
"2  c #13718A",
"3  c #19748C",
"4  c #017592",
"5  c #0D7591",
"6  c #0D7A96",
"7  c #077A98",
"8  c #0E7C99",
"9  c #107490",
"0  c #1A7790",
"q  c #127894",
"w  c #1D7B91",
"e  c #107C9A",
"r  c #236E87",
"t  c #23748B",
"y  c #227A8E",
"u  c #3D798A",
"i  c #207C94",
"p  c #1F8097",
"a  c #238097",
"s  c #24829A",
"d  c #28869D",
"f  c #2B899D",
"g  c #338399",
"h  c #008EA6",
"j  c #2D8DA2",
"k  c #3192A7",
"l  c #3394AA",
"z  c #3B94AB",
"x  c #3799AF",
"c  c #2C9EB5",
"v  c #379BB1",
"b  c #3A9DB3",
"n  c #2CA0B7",
"m  c #35A0B7",
"M  c #3BA0B6",
"N  c #3DA4BA",
"B  c #3FA8BC",
"V  c #488396",
"C  c #578A9D",
"Z  c #41A6BC",
"A  c #41A8BE",
"S  c #29B2CB",
"D  c #3FB3C8",
"F  c #44ADC4",
"G  c #49AFC6",
"H  c #45B1C6",
"J  c #47B3C9",
"K  c #4AB5CC",
"L  c #4CB9CE",
"P  c #5EB4C7",
"I  c #52B9CF",
"U  c #4EBBD1",
"Y  c #50BDD4",
"T  c #23C4DF",
"R  c #29C3DD",
"E  c #31C3DC",
"W  c #3BC4DF",
"Q  c #26C5E1",
"!  c #43C3DB",
"~  c #4EC0D8",
"^  c #51C0D7",
"/  c #54C5DD",
"(  c #5AC6DD",
")  c #57C9DF",
"_  c #63CADD",
"`  c #73CCDF",
"'  c #47C6E0",
"]  c #43C9E3",
"[  c #4FC9E5",
"{  c #56C6E1",
"}  c #5BC7E1",
"|  c #56C9E2",
" . c #59CBE4",
".. c #51CEE8",
"X. c #5BCFEA",
"o. c #57D0E7",
"O. c #5CD1EA",
"+. c #75CEE0",
"@. c #77D2E4",
"#. c #96BAC3",
"$. c #B9C6CD",
"%. c #B4C9D1",
"&. c #8CD5E4",
"*. c #A4D6E0",
"=. c #A7D6E0",
"-. c #B2E1EA",
";. c #BBE4EB",
":. c #BCE4EC",
">. c #CAD8DA",
",. c #D6DFDF",
"<. c #C1E6EE",
"1. c #D6E2E3",
"2. c #D9EEEF",
"3. c #C6E9F2",
"4. c #E5EAEB",
"5. c #E8F5F7",
"6. c #F7FAFB",
"7. c #F7FBFC",
"8. c #FFFFFE",
"9. c white",
/* pixels */
"                                                                                                                                ",
"                                                                                                                                ",
"                                                                                                                                ",
"                                                                                                                                ",
"                                                                                                                                ",
"                                                                                                                                ",
"                                                                                                                                ",
"                                                                                                                                ",
"                                                                                                                                ",
"                                                                                                                                ",
"                                                                                                                                ",
"                                                                                                                                ",
"                                                                                                                                ",
"                                                                                                                                ",
"                                                                                                                                ",
"                                                                                                                                ",
"                                      * 5 - - - - - - & & & & & & = = & & - < - & - & = %                                       ",
"                                      * < * * * * * - w w w w w w w w w w - * 2 i 0 V C u                                       ",
"                                  * * : 2 : * * : * a / / / / / / / / ( ( g $ z ) ! 2.9.1.# t                                   ",
"                                  < - % @ # * * % + 0 | { { { { { } ' T R = . h O.] 5.9.4.O >                                   ",
"                                ; < & x N x * & k N Z { { { { { } ! &.<.;.%.$.#.n m =.3.=.c Z f                                 ",
"                            * 6 < : % U O.U & # J O. .{ { { { { } R :.9.9.9.9.,.X $ S Q W  .O.l = ;                             ",
"                            * - * : % K  .K & # F  ./ { { { { { } E -.9.7.6.9.>.@ r I  .} / | l & 3                             ",
"                        * ; * * * : % K  .K & # F  ./ { { { { { { / _ +.+.` @.P # * K | / { { ^ ^ K * *                         ",
"                        5 < * * * : % U O.U & # J X. . . . . . . . . .[ [ [ ..D # & U X. . . . .O./ - 6                         ",
"                        - * * * * * & b J M * & v F F F F F F F F F F F F F G v % * M F F F F F F N * <                         ",
"                        < * * * * * * % # % * * % # # # # # # # # # # # # # # % * * % # # # # # # # * 9                         ",
"                        < * * * * * * * * * * * * * * * * * * * * * * * * * * * * * * * * * * * * * * 9                         ",
"                        - * * * * ; & F ^ F * & Z U L U U U U U U U U U U L Y Z % * F Y L U U L U H * 2                         ",
"                        6 < - * * : % L O.L # + J O. .| | | | | | | | | |  .O.J + # U  .| | |  .O./ < 8                         ",
"                        * ; * - * : % K  .U j j Z K K { { { { { { { { { / K K A j j U | { { { U K F * ;                         ",
"                            * < * : % K | / | o.k o w { { { { { { { { { / w o k o.| { { { /  .j @ &                             ",
"                            ; q - - % L  .| /  .l @ s { { { { { { { { { { s @ l | / { { / |  .l = 2                             ",
"                                  - * f j b { | l @ s / { { { { { { { { / s @ l  .{ { | U j k                                   ",
"                                  5 < & + d  . .k O i |  .{ { { { { {  .| w O k  .{ {  .U # 4                                   ",
"                                  ; ; 2 & d U U x w j U U ^ { { { | ^ U U j w M | { U U F ; 3                                   ",
"                                      ; < * * # F  .U * @ Z  .{ {  .N @ * Y | / / | d % ;                                       ",
"                                      * 6 < : # J O.^ 2 # Z  .{ {  .B # 2 Y | |  . .j 4 ;                                       ",
"                                            : * j v k 2 # Z  ./ { | B # 2 U  .L l x                                             ",
"                                            * < % # # : # A  .{ {  .B @ * Y O.H + &                                             ",
"                                            ; ; ; : : : # N / U ~ / N 3 i K / F & 3                                             ",
"                                                ; < * * * : 2 2 3 * b | ^ s < t                                                 ",
"                                                * e < * * * * * # o b O. .s 4 1                                                 ",
"                                                    ; * * * * 2 b N N N M y                                                     ",
"                                                      * - * * 3 / O.B O #                                                       ",
"                                                      ; ; * * 3 U ) N & 2                                                       ",
"                                                          ; < * w p y                                                           ",
"                                                            8 < - 7 ;                                                           ",
"                                                            * * ; ;                                                             ",
"                                                                                                                                ",
"                                                                                                                                ",
"                                                                                                                                ",
"                                                                                                                                ",
"                                                                                                                                ",
"                                                                                                                                ",
"                                                                                                                                ",
"                                                                                                                                ",
"                                                                                                                                ",
"                                                                                                                                ",
"                                                                                                                                ",
"                                                                                                                                ",
"                                                                                                                                ",
"                                                                                                                                ",
"                                                                                                                                "
};
