/* XPM */
static char *_55e6a84c4794e678773d68101b8b9e8mwMPIxxrLG1xvx0M[] = {
/* columns rows colors chars-per-pixel */
"64 64 240 2 ",
"   c None",
".  c black",
"X  c #190A00",
"o  c #27130A",
"O  c #2C2707",
"+  c #392A06",
"@  c #3B3503",
"#  c #392B16",
"$  c #393118",
"%  c #282C1A",
"&  c #392E29",
"*  c #392D22",
"=  c #3B3229",
"-  c #3A3423",
";  c #3D3732",
":  c #4A1900",
">  c #412B06",
",  c #443C1C",
"<  c #4D3907",
"1  c #61380F",
"2  c #453829",
"3  c #473C36",
"4  c #432D28",
"5  c #4B4804",
"6  c #47421B",
"7  c #514919",
"8  c #4A5114",
"9  c #4C4A2A",
"0  c #474426",
"q  c #554728",
"w  c #5B5429",
"e  c #4B4737",
"r  c #554936",
"t  c #5D5637",
"y  c #62572B",
"u  c #67593C",
"i  c #684A2B",
"p  c #5C6037",
"a  c #6C6435",
"s  c #68633C",
"d  c #696637",
"f  c #73683B",
"g  c #4D4644",
"h  c #564C46",
"j  c #5D534A",
"k  c #5A5D5C",
"l  c #595B56",
"z  c #504D50",
"x  c #64554A",
"c  c #785C45",
"v  c #655A54",
"b  c #705852",
"n  c #5D615F",
"m  c #6B6747",
"M  c #7B6A4D",
"N  c #766846",
"B  c #7C744A",
"V  c #797447",
"C  c #6A6558",
"Z  c #716459",
"A  c #786857",
"S  c #7E7B54",
"D  c #787257",
"F  c #5E6563",
"G  c #6B6D6B",
"H  c #656866",
"J  c #736F64",
"K  c #776D67",
"L  c #6C716F",
"P  c #797669",
"I  c #696774",
"U  c #6E7472",
"Y  c #737473",
"T  c #757875",
"R  c #767A79",
"E  c #7C7C7B",
"W  c #7C7C75",
"Q  c #894F2E",
"!  c #8F643C",
"~  c #976C4D",
"^  c #847B49",
"/  c #856A58",
"(  c #847C53",
")  c #877559",
"_  c #96785A",
"`  c #977652",
"'  c #A3764B",
"]  c #A17858",
"[  c #A66E4D",
"{  c #856E65",
"}  c #86786A",
"|  c #967967",
" . c #827B7A",
".. c #857C74",
"X. c #957E74",
"o. c #A37A64",
"O. c #8A844D",
"+. c #8D8A4E",
"@. c #98874A",
"#. c #8A8354",
"$. c #85825A",
"%. c #878556",
"&. c #968B58",
"*. c #A7895C",
"=. c #AE9B59",
"-. c #B88D5B",
";. c #BDA25A",
":. c #A2A05D",
">. c #8A8666",
",. c #948A65",
"<. c #9A9469",
"1. c #878279",
"2. c #93847A",
"3. c #988879",
"4. c #989874",
"5. c #AB8C68",
"6. c #B98A65",
"7. c #A49868",
"8. c #B6926B",
"9. c #A68B79",
"0. c #B99577",
"q. c #A79978",
"w. c #AAA376",
"e. c #B8A878",
"r. c #BBA669",
"t. c #C5A85D",
"y. c #C6956A",
"u. c #C89976",
"i. c #D29068",
"p. c #C3AC6C",
"a. c #D8AA6F",
"s. c #C8A279",
"d. c #D8A679",
"f. c #CAB677",
"g. c #C6B06D",
"h. c #E7A87A",
"j. c #E5B07D",
"k. c #827F81",
"l. c #7D8482",
"z. c #838482",
"x. c #8A8583",
"c. c #8C8C8C",
"v. c #878787",
"b. c #918C8C",
"n. c #968881",
"m. c #8D918F",
"M. c #97968A",
"N. c #958E91",
"B. c #949493",
"V. c #9A9A96",
"C. c #9D9C9B",
"Z. c #999694",
"A. c #8C8C90",
"S. c #B79D88",
"D. c #A49C94",
"F. c #A19E9B",
"G. c #A29383",
"H. c #B8A487",
"J. c #A8A29B",
"K. c #B8A796",
"L. c #A29EA1",
"P. c #9EA3A1",
"I. c #ADABAC",
"U. c #A7A5A5",
"Y. c #B2ACA9",
"T. c #B5B3AE",
"R. c #BAB7AD",
"E. c #B4ACB5",
"W. c #B4B4B3",
"Q. c #BBBABA",
"!. c #B9B6B5",
"~. c #AFAFAF",
"^. c #CC9C81",
"/. c #C8A788",
"(. c #D5A987",
"). c #C5B486",
"_. c #DDB38E",
"`. c #C7AC94",
"'. c #DAB797",
"]. c #E7B68A",
"[. c #E4BB96",
"{. c #F2BA95",
"}. c #E9B087",
"|. c #C9B6A4",
" X c #C4BEBB",
".X c #D0BAA7",
"XX c #E3B9A1",
"oX c #E9C398",
"OX c #F3C69A",
"+X c #F4C38C",
"@X c #C6C2BC",
"#X c #D8CAB8",
"$X c #D6C1A9",
"%X c #EAC8A7",
"&X c #F3CAA4",
"*X c #F4CDAC",
"=X c #F7CDA5",
"-X c #FBD1AB",
";X c #F6D3A7",
":X c #F2CEB2",
">X c #F3D6B8",
",X c #ECD1B4",
"<X c #C1BEC4",
"1X c #BFC2C3",
"2X c #C4C4C4",
"3X c #CACAC6",
"4X c #CBCBCB",
"5X c #C6C7C8",
"6X c #D1CECC",
"7X c #D2D1CD",
"8X c #D0D2C3",
"9X c #CDCAD0",
"0X c #D5D4D3",
"qX c #D9D6D5",
"wX c #DCDAD5",
"eX c #DDDCDB",
"rX c #D8D6DA",
"tX c #D0CFD0",
"yX c #E2DEDC",
"uX c #EED9CB",
"iX c #DEE1DB",
"pX c #FDE6CA",
"aX c #E3E1DD",
"sX c #E9E7DD",
"dX c #DDDFE2",
"fX c #E1DFE1",
"gX c #E4E3E2",
"hX c #EAE6E3",
"jX c #EBEAE5",
"kX c #ECEBEB",
"lX c #E8E7EB",
"zX c #F1EBE8",
"xX c #F3F3EE",
"cX c #FAF3EE",
"vX c #F2EFF3",
"bX c #F4F4F3",
"nX c #FBFAF5",
"mX c #FDFDFC",
"MX c #F8F7F8",
"NX c #EDEDF3",
/* pixels */
"                                                                                                                                ",
"                                                                        R T R                                                   ",
"                                                                          G U U                                                 ",
"                                                                                G Y                                             ",
"                                                                                    Y R                                         ",
"                                                                                      G Y T                                     ",
"                                                                                          Y     H                               ",
"                                                                                          T T   U k                             ",
"                                                                                      >.p 9 G R T F                             ",
"                                             .K K                                 C 8 m M.8XB.H z.L                             ",
"                                      b.n...{ { Z x x b                       m 8 P R.hXmXmXrXF l.z.H                           ",
"                                  W 1.3.n.n.K x h 3 v v v h             J   P P 7XxXmXmXmXMXmXP.G c.T                           ",
"                              C.|.XXo.2.G.2.2.P C e e j v h g h h h z 3 I.  W.1.0XMXmXmXmXnXmXeXk m.R k                         ",
"                            c.  >XOX6.| 2.{ A K } Z j 3 3 3 3 & & ; o z rXgXU.v.I.U.2XMXmXMXMXmXm.L R l                         ",
"                          B.    >X[.6.M 2.X.K Z Z Z j h h 2 & & * g . B.vX0Xc.Z.5XeX2XU.4XMXmXmX2Xl z.n                         ",
"                              uX:X_.u.] / { Z x x e r e 3 2 = = = 3 . Q.hXQ.B.B.Q.rXgXeXQ.I.rXmXgXH G k                         ",
"                              ,X&X_.y.y.o.Z v v # 2.@XP O 2 = = e . k.vXqXW.z.C.3XeXeXaXhXrXU.I.  Y F G                         ",
"                              %X&Xd.-.-.0.`.9./ { S.} | 2 * * # 2 $ 0XmXeXU.E !.qXgXaXaXrXeXlX2XE                               ",
"                              ;X=Xs.u.u.(.'.0./.%X'.0.~ 1 1 i c i J.nXMXqXz.V.3XyXyXgXgXyXyXeX                                  ",
"                                oX_.(.(.s.u.[.-X=X-X[.8.' ! [ ! / jXmXlXW.Y W.0XaXyXgXaXeXgXxXMX    R                           ",
"                                  S.Q 1 *.%X&X&X&X&X&XOXs.[ Q Q uXmXvX4XT Z.6XaXyXyXaXaXeXeX7XeX      G                         ",
"                            C J 2.r : _ [.&X*X[.&X&X=X=X_._ 9.sXmXmX0XY c.@X0XaXgXgXgXjXkXkX2Xz.                                ",
"                          D C     4 / './.%X%X&X*X*X*X-X(.>.3XeXMX0XZ  .0XhXlXvXMXkXgXhXjXmXbXF.U.                              ",
"          >.    >.w.,.( D           9.`.) 1.3.`.*X;X;X;X8.q x.I ~.C h  .0XkXbXmXmXkXaXgXgXnX!.Y T.gX      E                     ",
"        _ H.<.s $.S s                 3.h . . . 0.=XOX0.i { rXU.2 r b.v.W.Q.eXmXMXkXgXgXkXbX@XC U.eXhX      c.                  ",
"        9.c N >.>.                  1.  J v P } ] ].(.b v x.yXR.s u x.0XI.B.gXmXmXkXgXgXnXwXz.B.3XeXsX                          ",
"  M M / >.M K.pXH.M                       K C 3./.'.| e J n.qXF.O.u b.nXbXB.gXmXmXkXgXhXmX2XT 2XeXaXiX      z.                  ",
",.,.,.S m m `.S.~ s.:X                    ~.3XF.K.`.} M...P E.D.:.5 ~.mXbX!.eXmXmXkXeXgXMXQ.E 3XyXeXaXjX    b.                  ",
"7.,.        c ' y.{.-X;X:X.X|.    H L A.  kX3X~.J.Y. X@XV.1.N.G.<.0 4XmXbXW.eXmXmXkXgXlXMXI.Y 7XgXeXaX                          ",
"S             _ y.d.].+X;X;X;X,XuXK.U.3XN.2XqXMXnXcXcXhXc.C Z H.f E vXnXbX!.eXmXmXbXeXgXbXI.L 0XyXeXgX    v.                    ",
"                | 6.u.d.j.].+XOX-X>XK.eX~.qXmXnXmXmXcX7XW l w.<.3 9XmXxXkXQ.eXmXMXkX4X5XhXI.G 3XwXaXaX                          ",
"                      8.y.d.a.h.{.].K.T.4XW.bXxXxXhXsXY.P D $.s Q.mXmXbXlX!.eXmXMXkX3X2XfX~.H 2XaXeXaX                          ",
"                          5.y.i.i.6.9.R.<XU.aXaXeXeXsXR...>.a H rXnXmXNXkXW.eXhXrX0XW.Q.tXc.H 6XaXyXaX    W                     ",
"                              9.0.5.H.U.  Z.5X7X2XW.      <.<.j L.hXMXlX0XC.qXlXlXeXrX0XlX2Xz W.gXeXaX    1.                    ",
"                                  M.  z.                  S u C  XkXgXW.3XhXhX4X5X4XtX1X5XMX2Xz.yXaX                            ",
"                                                          q.N x.eXmXrXv.5X~.W.1X5XdXgXgXrX2XL.Y T.gXeX                          ",
"                                                          q.M Y 0XMXbXgX4Xz.@X7X0XqXyXhXxXeXb. .2XgXwX                          ",
"                                                          e.#.r !.xXnXjXhXJ.2.3._ ) / 2.n.Z.z.U.gXkX                            ",
"                                                          e.7.1 D.gXmXzXhXT.D.#X'.(.u.` r x.W.qXaX      B.                      ",
"                                                          e.r.! A 0XmXnXhXhXD.#X'.d.].^.u F.gXjX        c.                      ",
"                                                          f.f.*.y V.bXnXzXaXM.#X>X[.].(.u V.yX        Z.                        ",
"                                                            p.;.` r 8XmXzXhX3X3.$X_.}./.c F.        I.                          ",
"                                                            s.a.*.N C sXcXwXiXJ.|.'.(.u.x c.                                    ",
"                                                              p.t.@.f J wXkXMX3X|.:Xd.y.6./ G                                   ",
"                                                                p.=.O.a r R.aXM.#XpX[.].h.u.Z                                   ",
"                                                                ).e.=.@.f + 9 0 } #XpX>X{.u._                                   ",
"                                                              u M ).g.;.&.^ a t @ j |.S./.u.|                                   ",
"                                                              #.5 N ).f.;.@.^ ^ f , X X     / D                                 ",
"                                                        $.&.w.&.f @ m ).f.r.@.O.^ + 2 x                                         ",
"                                                      ,.,.7.&.^ a q .     <.( ( f > 7 t                                         ",
"                                                    #.#.&.+.f 7 ,                 6 5 t C                                       ",
"                                                  #.&.^ d d 9                       9 w V                                       ",
"                                                  V N t                               9 m S                                     ",
"                                                B w                                     w m M D >.%.                            ",
"                                              $.^ w                                         x u m B #.O.+.^ t 2 O -             ",
"                                            $.%.s                                                   t s V #.V w X               ",
"                                        K ( O.V                                                           m w , o               ",
"                                          #.^ w                                                             $ O O               ",
"              m S &.<.    4.            B ( a                                                                 $ O %             ",
"                  a f N f B ( m D >.V y w y r                                                                 + $               ",
"                          , , 0 9 t w w y y q                                                                 > >               ",
"                                  $ @ 7 w q                                                               + +                   ",
"                                  - @ 6 6                                                                                       ",
"                                                                                                                                "
};
