/* XPM */
static char *d228a8671096488cf5e0e5dd73850ec4aXFR6Vg5vD0GGbMJ[] = {
/* columns rows colors chars-per-pixel */
"64 64 180 2 ",
"   c #472800",
".  c #562F00",
"X  c #4F3202",
"o  c #553400",
"O  c #5A3701",
"+  c #563903",
"@  c #5C3B04",
"#  c #573C09",
"$  c #5E3E0B",
"%  c #5D3E11",
"&  c #613D04",
"*  c #683F05",
"=  c #613E0B",
"-  c #603E11",
";  c #5D4106",
":  c #5D410C",
">  c #5C4211",
",  c #634205",
"<  c #6A4505",
"1  c #63430C",
"2  c #6A450B",
"3  c #65490E",
"4  c #6B4A0D",
"5  c #714A06",
"6  c #734D0C",
"7  c #784D0D",
"8  c #6D510F",
"9  c #75510E",
"0  c #79550C",
"q  c #644511",
"w  c #694612",
"e  c #664913",
"r  c #6B4B14",
"t  c #6C4719",
"y  c #6D4D19",
"u  c #724D14",
"i  c #784E12",
"p  c #724E1B",
"a  c #6E5014",
"s  c #6F511A",
"d  c #735114",
"f  c #7B5515",
"g  c #7D5915",
"h  c #74531B",
"j  c #7A561C",
"k  c #76591D",
"l  c #7C5A1C",
"z  c #765521",
"x  c #7B5621",
"c  c #775926",
"v  c #7D5A23",
"b  c #7D6023",
"n  c #825615",
"m  c #835A16",
"M  c #805519",
"N  c #825C1C",
"B  c #8A5E1D",
"V  c #8A6415",
"C  c #85611F",
"Z  c #8A631D",
"A  c #805721",
"S  c #825C23",
"D  c #895F26",
"F  c #815E29",
"G  c #8A5E29",
"H  c #846223",
"J  c #8B6424",
"K  c #8E6926",
"L  c #856329",
"P  c #8B652A",
"I  c #876829",
"U  c #8D6B2D",
"Y  c #916523",
"T  c #926A25",
"R  c #92672A",
"E  c #936B2D",
"W  c #9C6F2D",
"Q  c #95712C",
"!  c #9B712C",
"~  c #9C782C",
"^  c #8C6630",
"/  c #8E6A33",
"(  c #946D32",
")  c #996F32",
"_  c #957233",
"`  c #9C7433",
"'  c #967834",
"]  c #9E7934",
"[  c #967239",
"{  c #9C7539",
"}  c #9B793B",
"|  c #9E7939",
" . c #9F793D",
".. c #A17127",
"X. c #A57327",
"o. c #A5762C",
"O. c #A7762D",
"+. c #A8762A",
"@. c #A9752D",
"#. c #A77929",
"$. c #A6792F",
"%. c #A87929",
"&. c #AC7A2E",
"*. c #AC7C2E",
"=. c #A06F30",
"-. c #A27732",
";. c #A47730",
":. c #A37634",
">. c #A87732",
",. c #A57932",
"<. c #A07B35",
"1. c #A27B36",
"2. c #A47E37",
"3. c #AA7830",
"4. c #AE7C33",
"5. c #AA7B34",
"6. c #AB7D34",
"7. c #AA7D36",
"8. c #AB7E36",
"9. c #A37639",
"0. c #A37A39",
"q. c #A17D38",
"w. c #A17A3F",
"e. c #A27C3F",
"r. c #A47C3C",
"t. c #A67C3E",
"y. c #AA7D3C",
"u. c #AA7E3C",
"i. c #B07C36",
"p. c #A57E42",
"a. c #A57F43",
"s. c #A97E42",
"d. c #A68337",
"f. c #AB8236",
"g. c #A98837",
"h. c #A7813B",
"j. c #A6813E",
"k. c #AC8038",
"l. c #AB823C",
"z. c #AD833C",
"x. c #AE8B3D",
"c. c #B18136",
"v. c #B28937",
"b. c #B3863C",
"n. c #B3893B",
"m. c #9C8042",
"M. c #A58143",
"N. c #A38044",
"B. c #A68045",
"V. c #AA8140",
"C. c #AA8443",
"Z. c #AC8443",
"A. c #A98144",
"S. c #AA8447",
"D. c #A78946",
"F. c #AE8B44",
"G. c #A88549",
"H. c #AC8649",
"J. c #AD894A",
"K. c #AB884C",
"L. c #B38642",
"P. c #B88641",
"I. c #B48A44",
"U. c #B98C44",
"Y. c #B08649",
"T. c #B38C4A",
"R. c #B18B4D",
"E. c #B98F4C",
"W. c #B59447",
"Q. c #B6914C",
"!. c #BA914C",
"~. c #AF8C52",
"^. c #B28D53",
"/. c #BA8F51",
"(. c #B59352",
"). c #BB9353",
"_. c #B79855",
"`. c #BA9A5B",
"'. c #C09750",
"]. c #C29A56",
/* pixels */
"#.#.#.#.%.+.@.>.u.N , O 3 ; ; ; ; ; ; ; ; v S F F u * & @ ; ; $ ; ; $ $ $ $ $ ; : : : : : $ $ $ $ $ $ $ $ $ $ $ $ $ $ $ $ = $ $ ",
"%.%.%.%.%.c.6.;.` g @ o 1 ; : : : ; ; ; ; { a.B.w.R g i u & , & ; $ $ $ $ $ $ $ : $ : : : $ $ $ $ $ $ $ $ $ $ $ $ $ = = = = = = ",
"*.&.+.X...] q.Q d 2 O $ # $ $ q q 3 + + a [  .S.R.C.] K C < < < , , 3 1 O $ $ $ $ $ : : : > > > $ $ $ $ 1 1 = $ $ 1 = @ @ w 1 $ ",
"..O.3.4.k.' ' H , @ @ : $ $ % > : : + ; l N.e.{ ` ' ' 2.1.0.E f * @ & 1 1 $ $ $ $ $ : : : > > > > > 1 $ @ @ & = , @ @ @ O O @ @ ",
"6.6.3.O.] l d , o o $ 1 $ % % $ # $ # e b K.a.` R ] q.h.1.l.t.` S , @ @ 1 $ $ $ $ $ $ : : > > : : 1 = = @ o O , 2 2 2 2 2 2 r 2 ",
"l.;.T n 5 & + + o o $ 1 # % $ # + $ # e b G.B.e.| ] 1.] ] E 0.A.w.S = O @ $ $ $ $ $ : : : : : : $ $ & = , i l P ( U ( ( [ R ( F ",
"N 6 , O O @ & 1 1 $ $ $ % $ > > $ : : 3 r [ a.a.t.] ] 1.2.V.` )  .a./ r + = = $ $ : : : > X : q q , & O & ( { a.a.a.a.s.s.H.a.{ ",
"O O O @ @ , 1 1 $ $ $ % % $ > > $ : : ; 1 d J | B.] ] ] 1.t.] ` a.K.[ h $ = = $ $ : : : > + : q 1 o @ 2 i { t.t.t.9.9.9.9.t.-.9.",
"1 1 1 1 1 1 $ @ @ $ % % % $ > : $ : : ; , @ < N _ ] 1.] 1.! 0.V.S.[ L w o = = = % : : : : q q = O . * M R s.t.9.9.u.u.t.9.9.9.u.",
"3 q : # + @ @ @ # $ $ % % $ $ : $ # : : 1 O & , 4 H ` ] ] B.H.A.{ L x w $ $ $ $ $ : : : : + 1 3 , * f R 9.u.u.9.-.u.9.-.=.u.L.u.",
"$ $ $ : > 1 : $ $ $ $ $ $ $ $ $ $ : : : ; ; @ O o O , h S P L L S h 2 & $ $ : : : : $ : $ @ r $ o f E 9.L.1.3.3.,.,.,.,.;.;.;.O.",
": + $ : q q : $ $ $ $ $ $ $ $ $ # : ; : : $ # + O + @ @ O O $ $ 1 1 O O O $ $ $ $ : : : $ @ = @ 2 { s.9.W 3.3.3.,.O.O.O.,.;.;.O.",
": q : $ + 1 1 $ $ $ $ $ $ $ $ $ $ : ; ; : $ : 1 1 1 $ O o O O $ $ 1 = = $ $ $ $ $ : : : : q 1 @ 2 ` s.9.9.,.,.3.,.O.O.O.,.-.;.O.",
": : : $ $ 1 = $ $ $ $ $ $ $ $ $ $ : ; ; : $ $ q q q 3 q q 3 1 $ $ @ @ @ @ $ $ $ $ : : : : $ 1 1 u ) 9.9.u.;.O.O.O.O.O.O.,.-.;.O.",
"1 o o $ r @ = q r 1 $ $ $ $ : : : : : : : : : : : $ $ $ $ O $ $ O @ = = @ $ $ $ $ % % % $ o o r L a.9.9.) ;.O.O.O.O.O.O.,.3.6.O.",
"4 l j r @ @ $ 1 q 1 $ $ $ $ : : : : : : $ : > > : $ $ $ $ $ 1 1 $ = q q = $ % % % % % % % = + w L w.H.t.R ;.O.O.O.O.O.O.,.-.5.O.",
"U H.[ j o @ $ $ $ = 1 1 1 $ : : : : : : $ : > > % q q q q $ 1 1 $ O = = @ $ $ $ $ % % % : p 1 = w N 9.H.9.;.O.O.O.O.O.O.,.! ,.O.",
").a.J d , $ $ $ O 1 $ $ 1 $ $ $ $ $ $ $ $ : % % - q q q q + $ $ O $ 1 1 $ $ $ $ $ % % % $ $ $ = = r P t.u.:.;.;.;.,.,.,.,.W 1.,.",
"A.J.J.J.K.v 4 o O & = $ $ $ $ $ $ $ $ $ $ $ $ = = - - - = $ $ $ $ $ $ $ $ $ $ $ % % % % : : : $ o = h U { ] -.:.0.:.-.-.-.u.:.:.",
"S.J.J.T.R.} U d O @ = = $ $ $ $ $ $ $ $ $ $ $ = = = $ $ $ $ $ $ $ $ $ $ $ $ $ $ $ % % % : : > > : # 1 r l ` ` { { w.t.A.Y.a.9.` ",
"F.l.F.F.F.R.`.} 2 o = = @ $ $ $ $ $ $ $ $ $ = = $ $ $ $ $ $ $ $ $ $ $ $ $ $ $ $ $ $ $ % : : > > : $ $ @ , * < i g J P R ) P R P ",
"W.d.d.x.F.S.(.~.v O = 1 @ $ $ $ $ $ = = $ $ $ $ $ $ $ $ $ $ $ $ $ $ $ $ $ $ $ $ $ $ $ $ : + # > $ : 1 , , @ @ @ O O O O O O , 4 ",
"x.x.x.x.F.] J.^./ r = 1 q $ $ $ $ $ = = $ $ $ $ $ $ = $ $ $ $ $ $ $ $ $ $ $ $ $ $ $ 1 1 : > > > 3 : : 1 1 , , = & @ @ O O , $ O ",
"g.x.x.x.F.T._.~.P 1 O @ = = $ $ $ $ = = $ $ $ $ $ $ = = = $ $ $ $ $ $ $ $ $ $ $ $ $ $ 1 : : : > : : : , 1 o o O @ $ = 1 3 3 1 1 ",
"x.x.x.F.F.T.J.{ u @ @ $ $ $ $ $ $ $ $ $ $ $ $ $ $ $ $ $ $ $ $ $ $ $ $ $ $ $ $ $ $ $ $ $ : : > : : : : 1 1 1 $ @ @ + o o X   o 1 ",
"Q.F.I.I.I.] ( l O o w w + $ = $ $ $ $ $ $ $ $ $ $ $ $ $ $ $ $ $ $ $ $ $ $ $ $ $ $ $ $ $ $ $ $ $ $ : : 1 1 $ $ : : q q e e e q q ",
"Q.Q.l.Q J , & & 1 = $ $ = $ $ $ $ $ $ $ $ $ $ $ $ $ $ $ % % q q q % % % % 1 1 $ $ 1 1 : : q q 1 $ 1 q q q O $ 1 3 # : > # : : : ",
"S f 6 < & , & = 1 = $ $ = - $ $ $ $ $ $ $ $ $ $ $ $ $ $ > q q % $ $ % % % $ $ = 1 o o O @ = $ @ @ @ O o o @ @ ; 1 : # # > : : : ",
", O O O O 1 = = q - % % % % $ $ $ $ $ : : : : : $ $ $ $ : : $ $ # $ $ $ $ o @ , r u p j c v x j h r , @ o 2 @ @ 1 3 + + q : $ : ",
"$ = = w r 1 = $ q - % % % % $ : : $ $ : : : : : : $ $ $ $ + @ $ $ $ $ $ $ j H ( { a.H.R.^.K.H.S.B.a.{ U S 4 @ O , 1 # $ > # # $ ",
"+ = $ $ $ 1 q q q % % % % % $ : : : : : : : : : : : $ : : # 1 3 $ # r s H e.H.).R.E.T.J.H.J.Y.(.).).E.H.V.E f & o O ; : # $ $ $ ",
"# 1 $ @ o 1 1 q q % % % % % : : : : : : : : : : : : $ : : # ; , ; 3 b m.`.T.I.I.I.Z.l.t.t.t.l.Z.Z.Q.E.I.Z.).t.H & O , 1 O : : : ",
"$ e q 3 3 1 1 1 q $ $ $ $ > : : : : : : : : : : : : : : : o + , 8 H _ D._.I.I.I.U.!.E.U.I.!.!.!.U.I.I.I.I.E.Q.t.f , & 2 3 3 3 1 ",
": : : 3 e 3 1 1 : $ $ $ $ : : : : : : : : : : : : $ : : $ d l _ D._._.(.F.I.b.k.k.n.b.z.k.U.b.b.k.n.n.n.n.Q U.Q.t.d 2 3 r 3 q q ",
"3 : 3 3 e 3 1 1 : : : : > > : : : : ; ; 1 1 1 @ @ O 2 f P B.S.R.(.D.B.S.Q.L.b.b.b.n.n.n.n.n.n.n.n.n.n.n.n.n.x.I.Q.f , d 3 q e e ",
"3 q 3 3 3 q 3 3 1 : 1 q q > : : : e 1 1 3 , 2 4 6 f E a.H.A.H.R.Q.F.S.F.Y.b.b.b.b.n.n.n.n.n.n.n.n.v.v.v.v.n.x.I.Q.C 2 d r q e e ",
"q q q q q q q q q q q q q q q 1 1 4 1 , 2 O 2 H _ V.Y././.H.H.Y.Y.F.I.F.Z.b.b.b.b.b.n.n.n.n.n.n.n.n.n.v.n.n.x.I.Q.J 2 r 3 q q q ",
"3 q q q q q q q q q q q q q 1 1 1 , @ @ , l I e.T.).E.Y.L.Y.I.I.F.I.E.I.u.b.b.b.b.b.n.n.n.n.n.n.n.n.n.n.n.n.z.F.(.P & 3 : q q q ",
"3 3 1 q q q q q q q q q q r r 2 , @ @ 4 C D.Q.Q.E.L.l.L.E.I.I.I.I.L.L.L.L.b.b.b.b.b.b.b.b.n.n.n.n.n.n.n.n.f.z.T.J.P 1 q r q q q ",
"1 1 1 3 3 q q q q q 1 1 1 = & & , < N q.Q.T.Q.Q.E.b.b.b.P.P.P.P.P.b.b.b.b.b.b.b.b.b.b.b.b.b.b.n.n.n.n.v.n.n.E.C.{ j 1 q e q q q ",
"q q 3 3 1 q q q q q 1 1 1 & @ 2 f E q.Q.].l.l.L.U.P.P.P.b.P.P.P.P.b.b.b.b.b.b.b.b.b.b.b.b.b.n.n.n.v.v.v.n.U.Q.q.j 2 = q e q q q ",
"q q 3 q 1 q q 1 1 q q 1 = 2 2 g E T.E.Z.1.'.I.k.k.P.U.P.i.b.b.b.b.b.b.b.b.b.b.b.b.b.b.n.n.n.n.n.n.n.n.n.n.U.Z.H 2 & 1 y e q q 1 ",
"q q q q 1 q q 1 1 1 q 1 = < n ` Z.Q.Z.l.I.n.n.n.b.b.b.b.b.b.b.b.b.b.b.b.b.b.b.b.b.b.n.n.n.n.f.n.z.z.z.n.n.n.T 9 < r u y e q 1 1 ",
"q q 1 q 1 1 q 1 1 1 q 1 2 f ! L.L.I.l.L.I.b.n.n.b.b.b.b.b.b.b.b.b.P.b.b.b.b.b.b.b.b.b.n.n.U.z.f.z.U.U.n.2.Z 7 < 6 l d 3 3 q q 3 ",
"q q q q 3 1 q 1 q q 1 1 r E L.E.Z.L.L.L.I.b.n.n.n.b.b.b.b.b.b.b.b.P.P.P.b.b.b.b.b.n.n.n.n.z.b.I.U.!.z.Q f 0 5 6 f u 2 4 s s e 3 ",
"q q q q 1 1 q 1 q q 1 1 r ] I.E.L.I.L.l.I.b.n.n.n.b.b.b.b.b.b.b.b.P.P.P.b.b.n.n.n.I.I.n.I.n.!.!.l.T m 5 5 g f N N 2 & 4 k r 3 1 ",
"q q q q 3 1 q q r 1 1 : r H.Z.l.I.E.L.Z.I.z.n.n.n.b.b.b.b.b.b.b.b.k.k.k.l.z.z.z.z.I.I.Q.l.l.1.Y m < < 0 N J S N d l L v a a r 3 ",
"3 q q q q q r q r q 1 1 u ).Z.u.Z.I.L.Z.I.b.n.n.n.b.b.b.b.b.b.b.b.U.U.P.I.E.Q.Q.E.I.t.! K Z f 6 7 6 N K J P F f 2 d H I b k h r ",
"q q e e q q e q r q 3 3 d J.L.Z.l.I.L.L.U.n.n.n.n.b.b.b.b.b.b.b.b.!.U.I.L.F.l.q.] K C g g 6 5 9 N K K K N F G D i , 4 l H b h d ",
"r r e q 3 1 1 : q q q 1 r ] I.E.z.U.L.L.U.I.I.I.I.b.L.L.L.L.L.L.L.I.L.u.1.' K l 6 d d 9 6 H K J H H N H R D P D N 6 4 4 d h h a ",
"h y r e q 3 3 3 q q q 3 2 Q f.n.n.n.n.n.b.U.I.l.u.u.Z.L.I.E.L.Z.L.Z.` E ) d h h l P P P P N H H J J H N N J J J J m n 7 6 u r u ",
"k k h h y r r r r r r r 2 0 V $.n.n.n.n.n.I.Y.Y.Y.E.T.Y.H.s.9.) ) P D D P S H H L L L L L S H H J l N N N B B Z Z n n m f u u r ",
"v v v v c z z z x x x z h 9 0 V ~ 1.f.z.z.t.a.a.a.t.{ ) R P P J S A F L L L L L L L L L H H H H J g l N N f n m N B D Y J E ` w.",
"v v v v v v v v v F v v l l g 0 0 g J ! ] _ R P J J S N l g S J S F ^ / P S v c k F F F S S H H J N N g f n B J Y ! ! ` :.L.Y.E.",
"v S S S S v v S S S S v v l l l f l N N N J N l S H A A F l P U S v L F p v c x h h z x j H f 6 f J J N 7 W -.1.u.L.Y.!.E.I.L.l.",
"S v v v v v v v v v v v v l l j h j l l l j j j S / F v v j v c u r h h w r w q 1 y p p h f f f f f N K ] L.L.I.I.I.I.I.I.l.l.b.",
"S v v v v v v A v v v v v l j h d r u h c h r h c v h r r r y r w w r y t q q 1 = q w t r 2 9 l J J Q j.E.L.I.I.P.L.L.L.L.b.b.n.",
"A v v v v l v A v v A v c j h h u 2 1 3 r r 3 1 3 y r r y r e r y y s z c y y t w w q q 1 d 6 f Z C.Q.).E.L.I.P.6.k.b.b.n.U.n.n.",
"S S A A A l v S v v A v j r r r r r r r 3 k r 3 w k 1 1 h r e r r r r y s h y r r $ = 3 u f J ;.Z.Y.L.L.l.U.U.U.U.b.b.b.n.n.n.n.",
"S S S S A l A A l v v l h r p h p y r r r k a r r v r 1 e r r r r r r r r 1 , 2 4 4 u l P u.L.E.Y.I.L.L.b.n.n.n.n.n.n.n.v.n.n.n.",
"A S S A A A A A l A S j u r j v j h r r k k h a 4 r 3 1 4 v l l v v v v H U ( _ [ { t.Y.).).E.Y.L.L.L.I.P.n.n.n.n.n.n.n.v.n.n.n.",
"A A S S S S S v l A S j r r v L v h r r v k l h 4 2 4 l I B.B.B.B.R.Y.Y.R.E.R.T.I.I.E.Q.].Z.Z.Z.Z.l.L.I.P.n.n.n.v.b.b.b.n.n.n.n.",
"A S S S S S S A v S H v u 4 j v c r 3 r v H H a 2 d U } J.Q.Q.E.E.E.E.E.E.I.I.I.I.l.l.l.l.I.I.I.I.P.P.P.P.b.n.n.n.b.b.b.n.n.n.n.",
"S S S S S S S S S S L S h r h j h r r r c I d + , U M.D.Q.I.I.I.L.l.l.l.z.I.I.I.I.I.I.I.I.E.I.b.k.P.P.P.P.b.n.b.b.b.b.b.n.n.n.n."
};
